<svg width="25" height="24" viewBox="0 0 25 24" fill="none" xmlns="http://www.w3.org/2000/svg">
<path d="M19.0601 12.4202L12.8801 18.6102C12.07 19.3302 11.0153 19.7135 9.93186 19.6816C8.84844 19.6497 7.81814 19.2051 7.05171 18.4386C6.28529 17.6722 5.84065 16.6419 5.80876 15.5585C5.77686 14.4751 6.16012 13.4204 6.88014 12.6102L14.8801 4.61021C15.3578 4.15651 15.9914 3.90354 16.6501 3.90354C17.3089 3.90354 17.9425 4.15651 18.4201 4.61021C18.8855 5.0818 19.1464 5.71768 19.1464 6.38021C19.1464 7.04274 18.8855 7.67862 18.4201 8.15021L11.5201 15.0402C11.4519 15.1138 11.3697 15.1731 11.2785 15.2149C11.1873 15.2567 11.0887 15.2802 10.9884 15.2839C10.8881 15.2876 10.7881 15.2715 10.694 15.2366C10.6 15.2016 10.5137 15.1485 10.4401 15.0802C10.3666 15.0119 10.3072 14.9298 10.2654 14.8386C10.2236 14.7474 10.2002 14.6488 10.1965 14.5485C10.1928 14.4482 10.2088 14.3482 10.2438 14.2541C10.2787 14.16 10.3319 14.0738 10.4001 14.0002L15.5301 8.88021C15.7184 8.69191 15.8242 8.43651 15.8242 8.17021C15.8242 7.90391 15.7184 7.64852 15.5301 7.46021C15.3418 7.27191 15.0864 7.16612 14.8201 7.16612C14.5538 7.16612 14.2984 7.27191 14.1101 7.46021L8.98014 12.6002C8.72344 12.8549 8.51971 13.1579 8.38067 13.4917C8.24164 13.8256 8.17006 14.1836 8.17006 14.5452C8.17006 14.9068 8.24164 15.2649 8.38067 15.5987C8.51971 15.9325 8.72344 16.2355 8.98014 16.4902C9.50451 16.9897 10.2009 17.2683 10.9251 17.2683C11.6493 17.2683 12.3458 16.9897 12.8701 16.4902L19.7601 9.59021C20.555 8.73716 20.9878 7.60888 20.9672 6.44308C20.9466 5.27727 20.4743 4.16496 19.6499 3.34048C18.8254 2.516 17.7131 2.04373 16.5473 2.02316C15.3815 2.00259 14.2532 2.43533 13.4001 3.23021L5.40014 11.2302C4.32134 12.425 3.74517 13.9901 3.79167 15.5992C3.83818 17.2083 4.50377 18.7374 5.64978 19.868C6.79579 20.9985 8.33382 21.6433 9.94342 21.6679C11.553 21.6925 13.1101 21.0951 14.2901 20.0002L20.4801 13.8202C20.5734 13.727 20.6473 13.6163 20.6978 13.4945C20.7483 13.3726 20.7742 13.2421 20.7742 13.1102C20.7742 12.9784 20.7483 12.8478 20.6978 12.726C20.6473 12.6041 20.5734 12.4935 20.4801 12.4002C20.3869 12.307 20.2762 12.233 20.1544 12.1826C20.0326 12.1321 19.902 12.1061 19.7701 12.1061C19.6383 12.1061 19.5077 12.1321 19.3859 12.1826C19.2641 12.233 19.1534 12.307 19.0601 12.4002V12.4202Z" fill="#121212"/>
</svg>
