<svg width="25" height="24" viewBox="0 0 25 24" fill="none" xmlns="http://www.w3.org/2000/svg">
<path d="M10.9805 8C10.9805 9.10457 10.085 10 8.98047 10C7.8759 10 6.98047 9.10457 6.98047 8C6.98047 6.89543 7.8759 6 8.98047 6C10.085 6 10.9805 6.89543 10.9805 8Z" fill="#121212"/>
<path d="M18.9805 8C18.9805 9.10457 18.085 10 16.9805 10C15.8759 10 14.9805 9.10457 14.9805 8C14.9805 6.89543 15.8759 6 16.9805 6C18.085 6 18.9805 6.89543 18.9805 8Z" fill="#121212"/>
<path d="M18.9805 16C18.9805 17.1046 18.085 18 16.9805 18C15.8759 18 14.9805 17.1046 14.9805 16C14.9805 14.8954 15.8759 14 16.9805 14C18.085 14 18.9805 14.8954 18.9805 16Z" fill="#121212"/>
<path d="M10.9805 16C10.9805 17.1046 10.085 18 8.98047 18C7.8759 18 6.98047 17.1046 6.98047 16C6.98047 14.8954 7.8759 14 8.98047 14C10.085 14 10.9805 14.8954 10.9805 16Z" fill="#121212"/>
</svg>
