<svg width="24" height="24" viewBox="0 0 24 24" fill="none" xmlns="http://www.w3.org/2000/svg">
<path fill-rule="evenodd" clip-rule="evenodd" d="M17.5303 7.53033C17.8232 7.23744 17.8232 6.76256 17.5303 6.46967C17.2374 6.17678 16.7626 6.17678 16.4697 6.46967L12 10.9393L7.53044 6.46978C7.23755 6.17689 6.76268 6.17689 6.46978 6.46978C6.17689 6.76268 6.17689 7.23755 6.46978 7.53044L10.9393 12L6.46967 16.4697C6.17678 16.7626 6.17678 17.2374 6.46967 17.5303C6.76256 17.8232 7.23744 17.8232 7.53033 17.5303L12 13.0607L16.4698 17.5304C16.7627 17.8233 17.2376 17.8233 17.5304 17.5304C17.8233 17.2375 17.8233 16.7627 17.5304 16.4698L13.0607 12L17.5303 7.53033Z" fill="black"/>
</svg>
