<svg width="25" height="24" viewBox="0 0 25 24" fill="none" xmlns="http://www.w3.org/2000/svg">
<path fill-rule="evenodd" clip-rule="evenodd" d="M9.5884 4.7037H16.3725C16.3199 4.62991 16.2635 4.55552 16.2034 4.48127C15.6029 3.73986 14.62 3 12.9805 3C11.341 3 10.3581 3.73986 9.75753 4.48127C9.69739 4.55552 9.64107 4.62991 9.5884 4.7037ZM18.6687 4.7037C18.4861 4.29978 18.1953 3.76294 17.7575 3.22243C16.8581 2.112 15.341 1 12.9805 1C10.62 1 9.10286 2.112 8.2034 3.22243C7.76559 3.76294 7.47486 4.29978 7.29223 4.7037H2.98047V6.7037H4.92144L6.35001 23H19.6109L21.0395 6.7037H22.9805V4.7037H18.6687ZM19.0318 6.7037H6.92911L8.18236 21H17.7786L19.0318 6.7037Z" fill="#121212"/>
</svg>
