<svg width="25" height="24" viewBox="0 0 25 24" fill="none" xmlns="http://www.w3.org/2000/svg">
<path d="M14.9805 4C14.9805 5.10457 14.085 6 12.9805 6C11.8759 6 10.9805 5.10457 10.9805 4C10.9805 2.89543 11.8759 2 12.9805 2C14.085 2 14.9805 2.89543 14.9805 4Z" fill="#121212"/>
<path d="M14.9805 12C14.9805 13.1046 14.085 14 12.9805 14C11.8759 14 10.9805 13.1046 10.9805 12C10.9805 10.8954 11.8759 10 12.9805 10C14.085 10 14.9805 10.8954 14.9805 12Z" fill="#121212"/>
<path d="M12.9805 22C14.085 22 14.9805 21.1046 14.9805 20C14.9805 18.8954 14.085 18 12.9805 18C11.8759 18 10.9805 18.8954 10.9805 20C10.9805 21.1046 11.8759 22 12.9805 22Z" fill="#121212"/>
</svg>
