<svg width="24" height="24" viewBox="0 0 24 24" fill="none" xmlns="http://www.w3.org/2000/svg">
<path d="M8.48847 13.4788L9.61152 12.3558C9.441 11.466 9.67498 10.707 10.3134 10.0788C10.9519 9.45062 11.7179 9.2096 12.6115 9.35575L13.7346 8.2327C13.5025 8.125 13.2637 8.04743 13.0182 8C12.7727 7.95257 12.5205 7.92885 12.2615 7.92885C11.1269 7.92885 10.1638 8.32468 9.37212 9.11635C8.58045 9.90802 8.18462 10.8711 8.18462 12.0057C8.18462 12.2647 8.20674 12.517 8.25097 12.7625C8.29521 13.008 8.37437 13.2467 8.48847 13.4788ZM5.3077 16.5904L6.41152 15.5557C5.77819 15.0724 5.21152 14.5349 4.71152 13.9432C4.21152 13.3516 3.79486 12.7057 3.46152 12.0057C4.29486 10.3224 5.49902 8.98492 7.07402 7.99325C8.64902 7.00158 10.3782 6.50575 12.2615 6.50575C12.7449 6.50575 13.2157 6.53908 13.674 6.60575C14.1324 6.67242 14.5949 6.77242 15.0615 6.90575L16.2269 5.7404C15.591 5.48912 14.9426 5.30386 14.2817 5.18463C13.6208 5.06539 12.9474 5.00577 12.2615 5.00577C10.1128 5.00577 8.13911 5.56411 6.3404 6.68077C4.54168 7.79744 3.15835 9.30833 2.1904 11.2134C2.12373 11.3404 2.07534 11.4682 2.04522 11.5971C2.01509 11.7259 2.00002 11.8622 2.00002 12.0057C2.00002 12.1493 2.01252 12.2856 2.03752 12.4144C2.06252 12.5433 2.10835 12.6711 2.17502 12.798C2.52887 13.5506 2.97311 14.2455 3.50772 14.8826C4.04232 15.5198 4.64231 16.0891 5.3077 16.5904ZM12.2615 19.0057C14.3666 19.0057 16.2961 18.4432 18.0499 17.3182C19.8038 16.1932 21.198 14.7115 22.2326 12.873C22.316 12.7461 22.3769 12.6083 22.4153 12.4596C22.4538 12.3109 22.473 12.1596 22.473 12.0057C22.473 11.8519 22.4564 11.7032 22.423 11.5596C22.3897 11.416 22.3314 11.2756 22.248 11.1384C21.8762 10.459 21.4551 9.81185 20.9845 9.1971C20.514 8.58235 19.973 8.03139 19.3615 7.54422L21.6192 5.27112C21.7576 5.12241 21.8259 4.94581 21.824 4.74132C21.8221 4.53684 21.7487 4.36217 21.6038 4.2173C21.4589 4.07243 21.2833 4 21.0769 4C20.8705 4 20.6948 4.07243 20.55 4.2173L3.97307 20.7942C3.83462 20.9326 3.76123 21.1041 3.7529 21.3086C3.74456 21.5131 3.81795 21.6929 3.97307 21.848C4.11794 21.9929 4.29358 22.0653 4.5 22.0653C4.7064 22.0653 4.88203 21.9929 5.0269 21.848L8.54612 18.3595C9.13587 18.5878 9.74196 18.7525 10.3644 18.8538C10.9868 18.9551 11.6192 19.0057 12.2615 19.0057ZM18.3076 8.59802C18.8935 9.05059 19.4202 9.56246 19.8875 10.1336C20.3548 10.7048 20.7461 11.3288 21.0615 12.0057C20.2282 13.6891 19.024 15.0266 17.449 16.0182C15.874 17.0099 14.1449 17.5057 12.2615 17.5057C11.832 17.5057 11.4093 17.4769 10.9932 17.4192C10.5772 17.3615 10.164 17.2724 9.7538 17.1519L11.0192 15.8557C11.2218 15.9442 11.424 16.0041 11.6259 16.0355C11.8279 16.0669 12.0397 16.0826 12.2615 16.0826C13.3961 16.0826 14.3593 15.6868 15.1509 14.8951C15.9426 14.1035 16.3384 13.1403 16.3384 12.0057C16.3384 11.7839 16.3211 11.5721 16.2865 11.3702C16.2519 11.1682 16.1935 10.966 16.1115 10.7634L18.3076 8.59802Z" fill="#1C1B1F"/>
</svg>
