<svg width="25" height="24" viewBox="0 0 25 24" fill="none" xmlns="http://www.w3.org/2000/svg">
<path d="M13.1984 16.0769C14.3315 16.0769 15.2939 15.6803 16.0855 14.8871C16.8772 14.0939 17.273 13.1308 17.273 11.9977C17.273 10.8646 16.8764 9.90224 16.0833 9.11058C15.2901 8.31891 14.327 7.92308 13.1939 7.92308C12.0608 7.92308 11.0984 8.31966 10.3067 9.11282C9.51506 9.90601 9.11923 10.8692 9.11923 12.0023C9.11923 13.1353 9.51581 14.0977 10.309 14.8894C11.1022 15.681 12.0653 16.0769 13.1984 16.0769ZM13.1961 14.7C12.4461 14.7 11.8086 14.4375 11.2836 13.9125C10.7586 13.3875 10.4961 12.75 10.4961 12C10.4961 11.25 10.7586 10.6125 11.2836 10.0875C11.8086 9.56248 12.4461 9.29998 13.1961 9.29998C13.9461 9.29998 14.5836 9.56248 15.1086 10.0875C15.6336 10.6125 15.8961 11.25 15.8961 12C15.8961 12.75 15.6336 13.3875 15.1086 13.9125C14.5836 14.4375 13.9461 14.7 13.1961 14.7ZM13.1961 19C11.091 19 9.1657 18.4384 7.4202 17.3153C5.67468 16.1923 4.28142 14.7147 3.2404 12.8827C3.15707 12.7391 3.09617 12.5944 3.0577 12.4485C3.01923 12.3027 3 12.153 3 11.9995C3 11.846 3.01923 11.6965 3.0577 11.551C3.09617 11.4054 3.15707 11.2609 3.2404 11.1173C4.28142 9.28525 5.67468 7.80769 7.4202 6.68463C9.1657 5.56154 11.091 5 13.1961 5C15.3012 5 17.2265 5.56154 18.972 6.68463C20.7176 7.80769 22.1108 9.28525 23.1518 11.1173C23.2352 11.2609 23.2961 11.4056 23.3345 11.5514C23.373 11.6973 23.3922 11.847 23.3922 12.0005C23.3922 12.154 23.373 12.3035 23.3345 12.449C23.2961 12.5945 23.2352 12.7391 23.1518 12.8827C22.1108 14.7147 20.7176 16.1923 18.972 17.3153C17.2265 18.4384 15.3012 19 13.1961 19ZM13.1961 17.5C15.0795 17.5 16.8086 17.0041 18.3836 16.0125C19.9586 15.0208 21.1628 13.6833 21.9961 12C21.1628 10.3166 19.9586 8.97914 18.3836 7.98748C16.8086 6.99581 15.0795 6.49998 13.1961 6.49998C11.3128 6.49998 9.58362 6.99581 8.00863 7.98748C6.43362 8.97914 5.22946 10.3166 4.39613 12C5.22946 13.6833 6.43362 15.0208 8.00863 16.0125C9.58362 17.0041 11.3128 17.5 13.1961 17.5Z" fill="#1C1B1F"/>
</svg>
