<svg width="25" height="24" viewBox="0 0 25 24" fill="none" xmlns="http://www.w3.org/2000/svg">
<g clip-path="url(#clip0_1_7407)">
<circle cx="12.9805" cy="12" r="12" fill="#F8F8F8"/>
<path d="M24.9805 12.0734C24.9805 5.40543 19.6079 0 12.9805 0C6.35305 0 0.980469 5.40543 0.980469 12.0734C0.980469 18.0995 5.3687 23.0943 11.1055 24V15.5633H8.05859V12.0734H11.1055V9.41345C11.1055 6.38756 12.897 4.71616 15.638 4.71616C16.951 4.71616 18.3242 4.95196 18.3242 4.95196V7.92314H16.811C15.3204 7.92314 14.8555 8.8538 14.8555 9.8086V12.0734H18.1836L17.6516 15.5633H14.8555V24C20.5922 23.0943 24.9805 18.0995 24.9805 12.0734Z" fill="#1877F2"/>
</g>
<defs>
<clipPath id="clip0_1_7407">
<rect width="24" height="24" fill="white" transform="translate(0.980469)"/>
</clipPath>
</defs>
</svg>
