<svg width="24" height="24" viewBox="0 0 24 24" fill="none" xmlns="http://www.w3.org/2000/svg">
<path d="M11.6514 20C11.4001 20 11.1898 19.9153 11.0206 19.7461C10.8514 19.5769 10.7667 19.3666 10.7667 19.1153V13.3269L5.16868 6.21538C4.97638 5.95896 4.9485 5.69229 5.08503 5.41538C5.22157 5.13846 5.45201 5 5.77636 5H18.7571C19.0814 5 19.3119 5.13846 19.4484 5.41538C19.5849 5.69229 19.557 5.95896 19.3647 6.21538L13.7667 13.3269V19.1153C13.7667 19.3666 13.6821 19.5769 13.5128 19.7461C13.3436 19.9153 13.1333 20 12.8821 20H11.6514ZM12.2667 12.8L17.2167 6.49998H7.31671L12.2667 12.8Z" fill="#1C1B1F"/>
</svg>
