<svg width="24" height="24" viewBox="0 0 24 24" fill="none" xmlns="http://www.w3.org/2000/svg">
<path d="M9.5 22C8.25 22 7.1875 21.5625 6.3125 20.6875C5.4375 19.8125 5 18.75 5 17.5C5 16.9167 5.14167 16.3792 5.425 15.8875C5.70833 15.3958 6.23333 14.7667 7 14C7.1 13.9 7.19583 13.7958 7.2875 13.6875C7.37917 13.5792 7.5 13.4333 7.65 13.25C6.8 11.95 6.14583 10.5875 5.6875 9.1625C5.22917 7.7375 5 6.35 5 5C5 4.03333 5.175 3.29167 5.525 2.775C5.875 2.25833 6.36667 2 7 2C7.95 2 8.8 2.45833 9.55 3.375C10.3 4.29167 10.8667 5.13333 11.25 5.9C11.4 6.23333 11.5375 6.57083 11.6625 6.9125C11.7875 7.25417 11.9 7.60833 12 7.975C12.1 7.60833 12.2125 7.25417 12.3375 6.9125C12.4625 6.57083 12.6083 6.23333 12.775 5.9C13.1417 5.13333 13.7 4.29167 14.45 3.375C15.2 2.45833 16.05 2 17 2C17.6333 2 18.125 2.25833 18.475 2.775C18.825 3.29167 19 4.03333 19 5C19 6.35 18.7708 7.7375 18.3125 9.1625C17.8542 10.5875 17.2 11.95 16.35 13.25C16.5 13.4333 16.6208 13.5792 16.7125 13.6875C16.8042 13.7958 16.9 13.9 17 14C17.7667 14.7667 18.2917 15.3958 18.575 15.8875C18.8583 16.3792 19 16.9167 19 17.5C19 18.75 18.5625 19.8125 17.6875 20.6875C16.8125 21.5625 15.75 22 14.5 22C13.75 22 13.1458 21.9167 12.6875 21.75L12 21.5L11.3125 21.75C10.8542 21.9167 10.25 22 9.5 22ZM9.5 20C9.88333 20 10.2667 19.9542 10.65 19.8625C11.0333 19.7708 11.3917 19.6333 11.725 19.45C11.5417 19.3667 11.375 19.225 11.225 19.025C11.075 18.825 11 18.65 11 18.5C11 18.3667 11.0958 18.25 11.2875 18.15C11.4792 18.05 11.7167 18 12 18C12.2833 18 12.5208 18.05 12.7125 18.15C12.9042 18.25 13 18.3667 13 18.5C13 18.65 12.925 18.825 12.775 19.025C12.625 19.225 12.4583 19.3667 12.275 19.45C12.6083 19.6333 12.9667 19.7708 13.35 19.8625C13.7333 19.9542 14.1167 20 14.5 20C15.2 20 15.7917 19.7583 16.275 19.275C16.7583 18.7917 17 18.2 17 17.5C17 17.2 16.9167 16.9083 16.75 16.625C16.5833 16.3417 16.3333 16.0583 16 15.775C15.7667 15.575 15.575 15.4 15.425 15.25C15.275 15.1 15.0333 14.8167 14.7 14.4C14.2167 13.8167 13.8167 13.4375 13.5 13.2625C13.1833 13.0875 12.6833 13 12 13C11.3167 13 10.8125 13.0875 10.4875 13.2625C10.1625 13.4375 9.76667 13.8167 9.3 14.4C8.96667 14.8167 8.725 15.1 8.575 15.25C8.425 15.4 8.23333 15.575 8 15.775C7.66667 16.0583 7.41667 16.3417 7.25 16.625C7.08333 16.9083 7 17.2 7 17.5C7 18.2 7.24167 18.7917 7.725 19.275C8.20833 19.7583 8.8 20 9.5 20ZM10.5 16.75C10.3667 16.75 10.25 16.675 10.15 16.525C10.05 16.375 10 16.2 10 16C10 15.8 10.05 15.625 10.15 15.475C10.25 15.325 10.3667 15.25 10.5 15.25C10.6333 15.25 10.75 15.325 10.85 15.475C10.95 15.625 11 15.8 11 16C11 16.2 10.95 16.375 10.85 16.525C10.75 16.675 10.6333 16.75 10.5 16.75ZM13.5 16.75C13.3667 16.75 13.25 16.675 13.15 16.525C13.05 16.375 13 16.2 13 16C13 15.8 13.05 15.625 13.15 15.475C13.25 15.325 13.3667 15.25 13.5 15.25C13.6333 15.25 13.75 15.325 13.85 15.475C13.95 15.625 14 15.8 14 16C14 16.2 13.95 16.375 13.85 16.525C13.75 16.675 13.6333 16.75 13.5 16.75ZM9.075 11.775C9.25833 11.6417 9.46667 11.525 9.7 11.425C9.93333 11.325 10.1917 11.2333 10.475 11.15C10.4417 10.35 10.3208 9.55417 10.1125 8.7625C9.90417 7.97083 9.64167 7.25 9.325 6.6C9.00833 5.93333 8.65833 5.37083 8.275 4.9125C7.89167 4.45417 7.50833 4.15833 7.125 4.025C7.09167 4.125 7.0625 4.25417 7.0375 4.4125C7.0125 4.57083 7 4.76667 7 5C7 6.13333 7.17917 7.28333 7.5375 8.45C7.89583 9.61667 8.40833 10.725 9.075 11.775ZM14.925 11.775C15.5917 10.725 16.1042 9.61667 16.4625 8.45C16.8208 7.28333 17 6.13333 17 5C17 4.76667 16.9875 4.57083 16.9625 4.4125C16.9375 4.25417 16.9083 4.125 16.875 4.025C16.4917 4.15833 16.1083 4.45417 15.725 4.9125C15.3417 5.37083 14.9917 5.93333 14.675 6.6C14.375 7.25 14.1208 7.97083 13.9125 8.7625C13.7042 9.55417 13.575 10.35 13.525 11.15C13.775 11.2167 14.0167 11.3042 14.25 11.4125C14.4833 11.5208 14.7083 11.6417 14.925 11.775Z" fill="#2A8927"/>
</svg>
