<svg width="25" height="24" viewBox="0 0 25 24" fill="none" xmlns="http://www.w3.org/2000/svg">
<path d="M24.9779 12.2668C24.9779 11.2801 24.8962 10.5601 24.7194 9.81348H13.2227V14.2668H19.971C19.835 15.3735 19.1003 17.0401 17.4676 18.1601L17.4447 18.3092L21.0798 21.0688L21.3316 21.0935C23.6445 19.0001 24.9779 15.9201 24.9779 12.2668Z" fill="#4285F4"/>
<path d="M13.2241 23.9997C16.5302 23.9997 19.3057 22.933 21.3331 21.093L17.469 18.1596C16.435 18.8663 15.0472 19.3596 13.2241 19.3596C9.98599 19.3596 7.23768 17.2664 6.25798 14.373L6.11438 14.385L2.33459 17.2517L2.28516 17.3863C4.29877 21.3063 8.43489 23.9997 13.2241 23.9997Z" fill="#2A8927"/>
<path d="M6.2594 14.3731C6.0009 13.6265 5.85129 12.8264 5.85129 11.9998C5.85129 11.1731 6.0009 10.3731 6.2458 9.62643L6.23895 9.46741L2.4118 6.55469L2.28658 6.61306C1.45667 8.23974 0.980469 10.0664 0.980469 11.9998C0.980469 13.9331 1.45667 15.7597 2.28658 17.3864L6.2594 14.3731Z" fill="#FFD027"/>
<path d="M13.2241 4.63997C15.5234 4.63997 17.0744 5.61329 17.9588 6.42668L21.4147 3.12C19.2922 1.18667 16.5302 0 13.2241 0C8.43489 0 4.29877 2.69331 2.28516 6.61328L6.24438 9.62665C7.23768 6.73332 9.98599 4.63997 13.2241 4.63997Z" fill="#FF4444"/>
</svg>
