<svg width="89" height="52" viewBox="0 0 89 52" fill="none" xmlns="http://www.w3.org/2000/svg">
<path d="M88.478 27.4981C88.478 33.9861 83.6952 39.9721 75.7145 44.3664C67.7524 48.7503 56.7174 51.4781 44.5 51.4781C32.2826 51.4781 21.2476 48.7503 13.2855 44.3664C5.30481 39.9721 0.522018 33.9861 0.522018 27.4981C0.522018 21.0101 5.30481 15.0241 13.2855 10.6299C21.2476 6.24589 32.2826 3.51811 44.5 3.51811C56.7174 3.51811 67.7524 6.24589 75.7145 10.6299C83.6952 15.0241 88.478 21.0101 88.478 27.4981Z" fill="#F8F8F8" stroke="#2A8927" stroke-width="1.04404"/>
<ellipse cx="11.7703" cy="11.6688" rx="11.7703" ry="11.6688" transform="matrix(0.999987 0.00513063 -0.00519558 0.999987 9.14404 22.355)" fill="#2A8927"/>
<path d="M22.0927 22.4218L20.726 22.3966C21 21.7096 21.7106 20.6072 22.0939 19.3681C22.8208 17.0178 22.9781 14.4649 22.6065 12.864C22.2114 11.1616 21.7823 9.93748 21.4283 8.67853C21.346 8.38603 21.5695 8.40896 21.6095 8.49981C22.3222 10.1198 22.9373 11.7235 23.2058 13.5368C23.4935 15.4796 23.3665 17.3092 23.1797 18.5654C23.0303 19.5704 22.3977 21.5553 22.0927 22.4218Z" fill="#2A8927"/>
<path d="M27.5831 11.1238C26.6677 12.8431 24.8558 13.7661 24.1011 14.0895C23.9172 14.1684 23.7164 14.0628 23.6786 13.8673C23.5232 13.0653 23.2719 11.0572 24.1873 9.33795C25.1027 7.61867 26.9147 6.69567 27.6693 6.3722C27.8532 6.29335 28.054 6.39893 28.0919 6.59442C28.2472 7.39645 28.4986 9.40452 27.5831 11.1238Z" fill="#2A8927"/>
<path d="M76.0625 22.1444C74.1664 22.6175 72.2663 21.8984 71.5178 21.5567C71.3348 21.4732 71.2789 21.2519 71.4005 21.0924C71.8979 20.4399 73.2309 18.9141 75.127 18.441C77.0231 17.968 78.9232 18.687 79.6717 19.0287C79.8547 19.1122 79.9106 19.3335 79.789 19.493C79.2916 20.1455 77.9586 21.6713 76.0625 22.1444Z" fill="#2A8927"/>
<path d="M64.5524 21.0823C62.7588 20.3085 61.6936 18.587 61.3099 17.8629C61.2161 17.6859 61.3074 17.4769 61.5015 17.4241C62.2958 17.2082 64.2887 16.806 66.0822 17.5797C67.8757 18.3535 68.941 20.075 69.3247 20.7991C69.4185 20.9761 69.3272 21.1851 69.1331 21.2379C68.3388 21.4538 66.3459 21.856 64.5524 21.0823Z" fill="#2A8927"/>
<path d="M17.0136 11.9977C18.816 12.7509 20.8041 12.3259 21.5958 12.1009C21.7893 12.0459 21.8782 11.8358 21.7824 11.66C21.3903 10.9403 20.3051 9.23108 18.5028 8.47791C16.7004 7.72474 14.7124 8.1497 13.9206 8.3747C13.7271 8.42968 13.6382 8.63975 13.7341 8.81563C14.1261 9.53532 15.2113 11.2445 17.0136 11.9977Z" fill="#2A8927"/>
<path d="M18.167 5.66767C18.8932 7.47421 20.5964 8.58365 21.312 8.98496C21.4863 9.08276 21.697 8.99911 21.7556 8.80883C21.9959 8.02798 22.461 6.05764 21.7348 4.25109C21.0086 2.44455 19.3054 1.33511 18.5899 0.933795C18.4155 0.836 18.2048 0.919653 18.1463 1.10993C17.9059 1.89078 17.4408 3.86112 18.167 5.66767Z" fill="#2A8927"/>
<path d="M20.701 22.4252C19.3631 25.1273 18.0329 30.0525 19.006 34.0118C19.1377 34.5475 17.3544 32.5654 17.7516 28.8827C17.7848 28.5745 16.4439 29.932 15.9295 31.6594C15.3061 33.753 15.5797 36.4306 16.9088 37.8655C18.5915 39.682 21.1424 40.1982 22.7676 40.3221C24.0317 40.4184 25.5696 39.977 24.9466 38.1763C24.4676 36.7917 23.5113 36.2817 22.3412 35.4668C21.1621 34.6456 20.534 33.5973 20.1889 32.4901C19.6558 30.7798 21.1295 24.8755 22.0776 22.4473C22.0787 22.4446 21.6534 22.4148 21.2658 22.418C21.0401 22.4199 20.7191 22.4073 20.701 22.4252Z" fill="#F8F8F8"/>
<path d="M25.9186 38.8104C26.2273 38.9659 27.4353 35.493 26.5775 33.6912C25.7198 31.8893 25.3903 31.3753 24.0643 30.6227C23.0239 30.0322 21.9092 29.4792 21.0868 29.9783C20.4525 30.3632 20.7912 31.9251 21.4313 33.2154C21.9677 34.2966 23.3202 34.7529 24.1289 35.5659C24.8478 36.2885 25.5582 38.6288 25.9186 38.8104Z" fill="white"/>
<path fill-rule="evenodd" clip-rule="evenodd" d="M32.2638 17.435C32.6995 19.3709 33.0665 20.4317 33.3998 22.3876C33.6183 23.6698 33.705 24.3954 33.8369 25.6893C33.9164 26.4684 34.013 26.9961 34.0992 27.7746C34.1897 28.5917 34.3747 29.4473 34.4489 30.2279C34.6231 32.0592 34.7503 32.4607 34.7911 34.4648V37.9403C34.6628 39.7935 34.521 40.847 34.0042 42.6322C33.8248 43.2521 33.3962 43.7141 33.0074 44.1331C32.6333 44.5363 32.2962 44.8996 32.2533 45.3257C32.209 45.7665 32.3319 46.111 32.6929 46.3683C33.3025 46.8027 33.9499 46.5457 34.6162 46.1945C35.051 45.9654 35.4105 45.2079 35.7504 44.3699C36.0942 43.5223 36.4558 42.6286 36.4985 41.525C36.504 41.3843 36.5095 41.2405 36.5159 41.0935C36.55 40.3029 36.5159 39.7645 36.4746 39.1109C36.4592 38.8674 36.4427 38.6078 36.4285 38.3132C36.3526 36.7492 36.1355 34.6676 35.8867 31.7925C35.8562 31.4403 35.8036 31.115 35.7772 30.8224C35.7693 30.735 35.7623 30.6234 35.7552 30.5097C35.7444 30.3371 35.7333 30.1596 35.7183 30.0547C35.7183 30.0547 36.5867 29.8821 37.3305 29.7729C38.6122 29.5847 39.1236 29.3633 40.2156 28.7303C41.1369 28.1962 41.5991 27.8796 42.3138 27.0928C43.0055 26.3313 43.42 25.824 43.8834 24.9073C44.3536 23.9772 44.5704 23.4117 44.7577 22.3876C45.0081 21.0184 45.0158 20.1061 44.7577 18.7384C44.7323 18.6039 44.7089 18.4758 44.6864 18.353C44.5152 17.4166 44.3991 16.782 43.887 15.8711C43.273 14.7787 42.7495 14.0448 41.7014 13.3514C40.9624 12.8625 40.4012 12.5454 39.5157 12.4825C38.2918 12.3956 37.5918 12.3842 36.4522 12.7432C35.3688 13.0845 34.8401 13.5418 34.0042 14.3072C33.7452 14.5443 33.44 14.8996 33.2438 15.128C33.1303 15.2601 33.0532 15.3498 33.0426 15.3498V15.0891C33.2438 13.2645 32.3749 12.8344 31.9971 13.0038C31.1845 13.4076 31.9139 15.8711 31.9139 15.8711C31.9139 15.8711 32.1263 16.8245 32.2638 17.435ZM34.2947 22.1269C33.9437 19.8775 33.2438 16.3924 33.2438 16.3924C33.2438 16.3924 34.2869 14.9723 35.2546 14.4809C36.4522 13.8727 36.8462 13.7317 37.8546 13.7858C38.4587 13.8182 38.774 13.9261 39.4283 14.2203C40.1154 14.5292 40.9146 15.6973 40.9146 15.6973C40.9146 15.6973 41.8755 17.2278 42.1612 18.3039C42.5882 19.9119 42.4571 20.9246 42.1612 22.5614C41.8339 24.3722 41.5434 25.5186 40.3271 26.9057C39.1688 28.2268 38.5585 28.7303 36.8974 28.9041C36.2381 28.973 35.1557 28.9504 35.0797 28.2959C35.0305 27.8721 34.9853 27.4747 34.9419 27.0928C34.7539 25.4389 34.5989 24.0764 34.2947 22.1269Z" fill="#2A8927"/>
<path d="M46.9348 12.3556C46.9348 11.9212 46.1741 11.9212 46.1741 12.3556C46.1741 12.8422 45.8277 26.6065 45.7937 27.4754C45.6772 30.4585 45.7922 33.4556 45.3526 37.061C45.2237 38.1183 44.4947 40.7157 46.398 40.7157C48.4777 40.7157 47.6464 37.9527 47.5438 36.9357C47.1634 33.1663 47.4175 31.5991 47.3151 27.8534C47.1537 21.9509 46.9348 12.7031 46.9348 12.3556Z" fill="#2A8927"/>
<path d="M57.4348 27.3406C57.7847 27.3406 57.8722 26.6455 57.4348 26.6455C56.0335 26.6455 54.9851 26.7995 53.5879 27.4275C52.275 28.0176 51.4931 28.5508 50.6156 29.6865C49.8047 30.7361 49.5442 31.4577 49.304 32.7276C49.0705 33.9619 49.0025 34.7474 49.3914 35.9424C49.8202 37.2598 50.6156 38.2883 51.4899 38.8096C52.3641 39.3309 54.9868 39.1572 55.5988 38.8096C56.2108 38.4621 55.424 40.6342 56.5606 41.6769C57.7556 42.7731 59.2707 42.8933 60.2325 42.1982C60.7847 41.7991 60.9021 40.5935 60.2325 40.4605C59.3582 40.2867 59.2707 40.808 58.6588 40.808C58.0468 40.808 56.8705 40.0571 56.7354 38.9834C56.4731 36.8981 57.0851 31.2505 57.0851 30.8161C57.0851 30.3816 56.5867 30.4695 56.5605 30.8161C56.2982 34.2915 56.1234 36.8112 55.7737 37.2457C55.6098 37.4492 54.6817 37.6895 53.8503 37.6801C52.2765 37.6624 51.2276 36.4349 50.8778 35.3342C50.3533 33.6833 50.3533 32.2931 51.2276 30.6423C51.9606 29.2582 52.8887 28.4701 54.5498 27.775C55.4046 27.4173 56.4055 27.3406 57.4348 27.3406Z" fill="#2A8927"/>
<path d="M61.6328 29.947C61.3166 31.309 61.458 28.0355 61.2831 26.3846C61.2446 26.0212 60.4089 26.2109 60.4963 26.7322C60.7194 28.0627 60.9414 28.7842 61.0208 30.1208C61.1217 31.8174 60.7586 34.4651 60.7586 34.4651C60.7586 34.4651 60.6727 35.8586 60.3282 36.8979C60.1893 37.3171 59.9889 37.593 60.0675 38.2881C60.1242 38.7894 60.5133 39.0655 61.0208 39.0701C61.419 39.0737 61.5896 38.9832 61.8951 38.5488C62.0784 38.2881 62.1113 37.6873 61.9825 37.1586C61.7287 36.1159 61.7202 34.552 61.7202 34.552C61.6911 33.6252 61.7353 32.3944 62.1574 31.1634C62.5072 30.1432 62.7893 29.4927 63.5562 28.7306C64.2556 28.0355 65.054 28.1358 65.567 28.7306C66.0916 29.3388 66.2664 29.6863 66.2664 31.511C66.2664 33.3195 65.9167 35.5946 65.9167 35.5946C65.9167 35.5946 65.6544 37.6799 66.0916 38.375C66.3911 38.8513 66.8576 39.1306 67.403 38.9832C67.8223 38.8698 68.0512 38.6105 68.1898 38.2012C68.3331 37.7782 68.2117 37.4729 68.0149 37.0717C67.7715 36.5751 67.2308 36.6015 66.9658 36.1159C66.7486 35.718 66.7579 35.4692 66.7035 34.9864C66.6428 34.4469 66.6854 34.0519 66.7035 33.5093C66.7308 32.6926 66.8727 32.273 66.8784 31.4241C66.8852 30.4056 66.8784 29.2519 66.791 28.7306C66.6866 28.108 66.3538 27.7748 66.0041 27.5142C65.4551 27.105 64.8742 27.025 64.1682 27.1666C62.7229 27.4565 61.8951 28.8175 61.6328 29.947Z" fill="#2A8927"/>
<path d="M70.6478 11.1544C70.6457 10.8151 69.7732 10.8151 69.7736 11.1544C69.7763 13.5003 69.7435 40.2286 69.7727 41.9374C69.8018 43.6461 69.9476 46.1079 70.4721 48.1932C70.8628 49.747 72.1333 51.3211 73.8818 51.4948C75.2807 51.6338 75.7803 51.534 76.7669 51.1473C77.8871 50.7082 78.3831 50.1531 78.9524 49.1489C79.3714 48.4099 79.3897 47.7587 79.3897 47.0636L79.3897 47.0395C79.3898 46.5191 79.3899 46.0876 78.9524 45.8472C78.4418 45.5667 77.6412 45.7603 77.5537 46.3685C77.4495 47.0937 77.3298 47.831 76.9418 48.4538C76.5459 49.0891 76.1322 49.261 75.5429 49.4964C74.656 49.8508 74.0385 49.7493 73.1824 49.4095C71.6795 48.8131 71.6115 47.585 71.2618 45.8472C70.9121 44.1095 70.7967 41.6766 70.7372 37.5061C70.5624 25.2551 70.6478 11.1544 70.6478 11.1544Z" fill="#2A8927"/>
<path d="M74.75 34.1175C75.0964 33.5724 76.0031 34.2334 76.4985 33.9437C76.9939 33.6541 77.7318 33.054 78.0722 32.206C78.4013 31.386 78.4393 30.8199 78.1596 29.947C77.9553 29.3093 77.6964 28.7418 77.1979 28.383C76.5796 27.9379 75.4494 28.0355 75.0997 28.2092C74.75 28.383 74.2427 28.9486 73.7883 29.5994C73.0985 30.5874 73.0255 31.2993 72.914 32.5536C72.8269 33.5343 72.7722 34.3141 73.0889 35.247C73.447 36.3016 73.8062 37.1589 74.8374 37.593C75.6548 37.9371 76.0878 37.7879 76.8482 37.593C77.6028 37.3996 77.898 36.8979 78.5968 36.6372C78.9412 36.5087 79.312 36.6735 79.4717 36.9848C79.645 37.3227 79.4456 37.6092 79.2087 38.0274C78.7951 38.7577 78.0353 38.9708 77.1979 39.07C76.3061 39.1757 75.7401 39.097 74.9248 38.7225C74.0472 38.3193 73.6486 37.8552 73.0889 37.0717C72.5309 36.2906 72.3541 35.8214 72.1276 34.8126C71.8301 33.4875 71.8655 32.5536 72.1272 31.1634C72.3491 29.9847 72.5276 29.3458 73.3517 28.4699C73.8181 27.9742 74.1453 27.5732 74.8374 27.3403C75.6142 27.079 76.222 27.0475 77.0231 27.3403C78.0429 27.7132 78.5589 28.2275 79.0339 29.2519C79.5769 30.4229 79.6093 31.5109 79.2087 32.5536C78.7173 33.833 78.191 35.0115 76.8482 35.3339C76.3172 35.4614 76.4111 35.4208 75.7991 35.4208C75.477 35.4208 75.0997 35.3339 74.8374 34.9864C74.6624 34.7544 74.5312 34.4618 74.75 34.1175Z" fill="#2A8927"/>
</svg>
