<svg width="11" height="13" viewBox="0 0 11 13" fill="none" xmlns="http://www.w3.org/2000/svg">
<path fill-rule="evenodd" clip-rule="evenodd" d="M5.02609 11.9981L5.02656 11.9964L5.02976 11.9846L5.04441 11.9321C5.05786 11.8844 5.07868 11.812 5.10703 11.7173C5.16375 11.5277 5.25048 11.2491 5.36837 10.901C5.60442 10.2039 5.96402 9.23231 6.45594 8.14084C7.44814 5.93934 8.94228 3.33275 10.9821 1.48073L9.63768 0C7.30248 2.12021 5.67162 5.01362 4.63257 7.31906C4.29901 8.05916 4.02271 8.74716 3.80086 9.34164C3.12115 8.50629 2.09362 7.60329 0.619764 7.12292L0 9.02447C1.14827 9.39872 1.9281 10.1508 2.43208 10.8407C2.68303 11.1842 2.85839 11.503 2.9695 11.7323C3.0248 11.8465 3.06345 11.937 3.08702 11.9953C3.09879 12.0244 3.10674 12.0453 3.11107 12.057L3.11467 12.0669L3.11478 12.0671L3.11487 12.0674M5.026 11.9985L5.02609 11.9981L5.026 11.9985Z" fill="#2A8927"/>
</svg>
