<svg width="24" height="24" viewBox="0 0 24 24" fill="none" xmlns="http://www.w3.org/2000/svg">
<path fill-rule="evenodd" clip-rule="evenodd" d="M11.9928 3.73307C9.65285 1.67128 6.19239 1.24936 3.50509 3.56443C0.598301 6.06858 0.175971 10.286 2.47459 13.2683C3.34712 14.4003 5.05011 16.101 6.68672 17.6585C8.34249 19.2343 9.99445 20.7233 10.8091 21.4508L10.8246 21.4646C10.9012 21.5331 10.9966 21.6183 11.088 21.6877C11.1974 21.7708 11.3545 21.874 11.5643 21.9371C11.8432 22.021 12.143 22.021 12.422 21.9371C12.6318 21.874 12.7889 21.7708 12.8983 21.6877C12.9897 21.6183 13.0851 21.5331 13.1617 21.4646L13.1772 21.4508C13.9918 20.7233 15.6438 19.2343 17.2996 17.6585C18.9362 16.101 20.6392 14.4003 21.5117 13.2683C23.8015 10.2974 23.4444 6.04751 20.4708 3.55559C17.7536 1.2785 14.33 1.67049 11.9928 3.73307ZM11.2332 5.819C9.52816 3.80916 6.81788 3.36288 4.80429 5.09755C2.70097 6.90952 2.41795 9.90848 4.05379 12.0309C4.81689 13.0209 6.40668 14.6191 8.05953 16.1921C9.60258 17.6606 11.1461 19.0562 11.9931 19.8143C12.8402 19.0562 14.3837 17.6606 15.9268 16.1921C17.5796 14.6191 19.1694 13.0209 19.9325 12.0309C21.5772 9.89702 21.315 6.88519 19.1924 5.10639C17.1255 3.37426 14.4506 3.81805 12.7531 5.819C12.5631 6.04295 12.2854 6.17188 11.9931 6.17188C11.7009 6.17188 11.4232 6.04295 11.2332 5.819Z" fill="black"/>
</svg>
