<svg width="24" height="24" viewBox="0 0 24 24" fill="none" xmlns="http://www.w3.org/2000/svg">
<path fill-rule="evenodd" clip-rule="evenodd" d="M14.6913 17.1253C16.6346 14.93 18.2525 12.3257 18.2525 9.9402C18.2525 6.45402 15.4264 3.62791 11.9402 3.62791C8.45402 3.62791 5.62791 6.45402 5.62791 9.9402C5.62791 12.3779 7.24959 14.9838 9.18606 17.1593C10.1196 18.2081 11.0581 19.0813 11.7648 19.6929C11.8614 19.7765 12.0046 19.7761 12.1006 19.692C12.1032 19.6898 12.1057 19.6875 12.1083 19.6853C12.8162 19.0652 13.7563 18.1817 14.6913 17.1253ZM10.9867 21.1693C9.49185 19.9088 6.60709 17.2148 5.05299 14.0378C4.41403 12.7315 4 11.3437 4 9.9402C4 9.29701 4.07648 8.67167 4.22083 8.07281C4.55395 6.58803 5.26395 5.32524 6.35084 4.28443C7.08574 3.58067 7.88448 3.04192 8.74708 2.66817C9.72418 2.23851 10.8043 2 11.9402 2C14.4833 2 16.7471 3.19553 18.2003 5.0552C18.484 5.41231 18.731 5.79098 18.9414 6.19125C19.5406 7.30784 19.8804 8.58433 19.8804 9.9402C19.8804 10.5262 19.8058 11.1112 19.6711 11.6899C19.5847 12.0733 19.4665 12.4645 19.3164 12.8634C17.879 16.7506 14.0856 20.1744 12.5745 21.4269C12.2037 21.7586 11.6437 21.7588 11.2729 21.4271C11.1765 21.3409 11.0812 21.255 10.9867 21.1693ZM11.9402 11.9003C13.0044 11.9003 13.8671 11.0376 13.8671 9.97342C13.8671 8.90921 13.0044 8.04651 11.9402 8.04651C10.876 8.04651 10.0133 8.90921 10.0133 9.97342C10.0133 11.0376 10.876 11.9003 11.9402 11.9003Z" fill="#121212"/>
</svg>
