<svg width="24" height="24" viewBox="0 0 24 24" fill="none" xmlns="http://www.w3.org/2000/svg">
<path fill-rule="evenodd" clip-rule="evenodd" d="M19.416 5.48734H5.58403C5.44343 5.48734 5.32945 5.61486 5.32945 5.77215V17.2278C5.32945 17.3851 5.44343 17.5127 5.58403 17.5127H19.416C19.5566 17.5127 19.6705 17.3851 19.6705 17.2278V5.77215C19.6705 5.61486 19.5566 5.48734 19.416 5.48734ZM5.58403 4C4.70919 4 4 4.79342 4 5.77215V17.2278C4 18.2066 4.70919 19 5.58403 19H19.416C20.2908 19 21 18.2066 21 17.2278V5.77215C21 4.79342 20.2908 4 19.416 4H5.58403Z" fill="#121212"/>
<path fill-rule="evenodd" clip-rule="evenodd" d="M4.24455 5.36794C4.41276 5.07337 4.76256 4.98713 5.02586 5.17531L11.9327 10.1117C12.2805 10.3602 12.7478 10.3603 13.0956 10.1117L20.0024 5.17532C20.2657 4.98714 20.6155 5.07339 20.7837 5.36796C20.9519 5.66253 20.8748 6.05387 20.6115 6.24205L12.8187 11.8117C12.633 11.9444 12.3953 11.9444 12.2096 11.8117L4.41674 6.24204C4.15344 6.05386 4.07635 5.66251 4.24455 5.36794Z" fill="#121212"/>
</svg>
