<svg width="25" height="24" viewBox="0 0 25 24" fill="none" xmlns="http://www.w3.org/2000/svg">
<g clip-path="url(#clip0_1_7416)">
<path d="M19.1485 11.1916C18.5845 10.9853 18.4085 10.8632 18.4085 10.64C18.4085 10.3916 18.6045 10.2442 18.9525 10.2442C19.2365 10.2442 19.5205 10.3284 19.7325 10.4168L19.8245 9.33895C19.5645 9.26316 19.2485 9.20421 18.9045 9.20421C17.7645 9.20421 17.0325 9.88632 17.0325 10.7874C17.0245 11.36 17.3885 11.9032 18.3405 12.2442C18.8765 12.4337 19.0165 12.5516 19.0165 12.7958C19.0165 13.0442 18.8365 13.2 18.4045 13.2C17.9845 13.2 17.4405 13.0021 17.1725 12.8337L16.9205 13.9116C17.2685 14.1095 17.8005 14.2484 18.4085 14.2484C19.7285 14.2484 20.4005 13.5874 20.4005 12.6821C20.3925 11.9705 20.0285 11.5074 19.1485 11.1916ZM22.6085 13.0232C22.1765 13.0232 22.0445 12.7579 22.0445 12.1726V8L20.6445 8.33684V9.30947H20.1125L20.0165 10.4168H20.6485V12.3916C20.6485 13.0737 20.7805 13.5368 21.0445 13.8274C21.2685 14.0758 21.6525 14.2442 22.1125 14.2442C22.5165 14.2442 22.8525 14.1937 23.0405 14.1137L23.0325 12.9768C22.9285 12.9979 22.7885 13.0189 22.6085 13.0232ZM22.1565 10.4211H23.0325V9.30947H22.1565V10.4211ZM6.28047 11.8147C6.25247 11.0737 6.22847 10.1768 6.22847 9.28H6.20047C6.01247 10.0674 5.75647 10.9474 5.52047 11.6674L4.77647 14.0758H3.70047L3.04847 11.6842C2.84847 10.96 2.64047 10.08 2.49647 9.27579H2.48047C2.44447 10.1053 2.41647 11.0611 2.37247 11.8316L2.26447 14.1726H0.980469L1.36847 8.00421H3.20847L3.80447 10.0632C3.99247 10.7747 4.18447 11.5495 4.32047 12.2695H4.34847C4.52047 11.5579 4.72847 10.7368 4.92847 10.0547L5.58047 8.00421H7.38447L7.72047 14.1726H6.36847L6.28047 11.8147ZM13.8525 12.2105C13.9005 12.8337 14.4805 13.1284 15.1525 13.1284C15.6405 13.1284 16.0325 13.0611 16.4245 12.9305L16.6125 13.9495C16.1445 14.1474 15.5725 14.2442 14.9485 14.2442C13.3885 14.2442 12.4965 13.2968 12.4965 11.7811C12.4965 10.5558 13.2205 9.2 14.8165 9.2C16.3045 9.2 16.8645 10.4126 16.8645 11.6126C16.8645 11.8695 16.8365 12.0968 16.8165 12.2063L13.8525 12.2105ZM15.5365 11.1789C15.5365 10.8126 15.3845 10.2021 14.7285 10.2021C14.1285 10.2021 13.8845 10.7747 13.8485 11.1789H15.5365Z" fill="#0862AF"/>
<path d="M24.0144 8.00853L24.9824 9.86537L24.0144 11.7306H23.0344L24.0024 9.86537L23.0304 8.00853H24.0144C24.0144 8.00432 24.0144 8.00432 24.0144 8.00853ZM12.0344 16.0001H8.09844V14.9727H12.0344V16.0001ZM9.25444 12.2064C9.30244 12.8296 9.88244 13.1243 10.5544 13.1243C11.0424 13.1243 11.4344 13.057 11.8264 12.9264L12.0144 13.9454C11.5464 14.1433 10.9744 14.2401 10.3504 14.2401C8.79044 14.2401 7.89844 13.2927 7.89844 11.777C7.89844 10.5517 8.62244 9.1959 10.2184 9.1959C11.7064 9.1959 12.2664 10.4085 12.2664 11.6085C12.2664 11.8654 12.2384 12.0927 12.2184 12.2022H9.25444V12.2064ZM10.9384 11.1748C10.9384 10.8085 10.7864 10.198 10.1304 10.198C9.53044 10.198 9.28644 10.7706 9.24644 11.1748H10.9384Z" fill="#D00000"/>
</g>
<defs>
<clipPath id="clip0_1_7416">
<rect width="24" height="24" fill="white" transform="translate(0.980469)"/>
</clipPath>
</defs>
</svg>
