<svg width="25" height="24" viewBox="0 0 25 24" fill="none" xmlns="http://www.w3.org/2000/svg">
<path fill-rule="evenodd" clip-rule="evenodd" d="M18.4092 8.32949C18.4636 8.31214 18.5353 8.34684 18.6069 8.44227C18.6069 8.44227 18.6069 8.44226 21.8456 11.6403C22.0348 11.8312 22.0348 12.1203 21.8456 12.262C21.8456 12.262 21.8456 12.262 18.6069 15.5093C18.5353 15.6047 18.4636 15.6278 18.4092 15.5989C18.3547 15.57 18.3203 15.4861 18.3203 15.3647V8.53769C18.3203 8.41913 18.3547 8.34684 18.4092 8.32949Z" fill="#D00000"/>
<path fill-rule="evenodd" clip-rule="evenodd" d="M12.8687 3H13.098L13.3187 3.09253C13.3187 3.09253 13.3187 3.09253 16.6519 6.43518C16.7953 6.62603 16.7465 6.7706 16.5086 6.7706C16.5086 6.7706 16.5086 6.7706 15.1272 6.7706C14.8893 6.7706 14.7001 6.96145 14.7001 7.20145C14.7001 7.20145 14.7001 7.20145 14.7001 9.68241C14.7001 9.92241 14.5081 10.1133 14.2215 10.1133C14.2215 10.1133 14.2215 10.1133 11.7939 10.1133C11.556 10.1133 11.364 9.92241 11.364 9.68241C11.364 9.68241 11.364 9.68241 11.364 7.20145C11.364 6.96145 11.1748 6.7706 10.9341 6.7706H9.45804C9.22015 6.7706 9.17143 6.62603 9.31473 6.43518C9.31473 6.43518 9.31473 6.43518 12.6509 3.09253L12.8687 3Z" fill="#D00000"/>
<path fill-rule="evenodd" clip-rule="evenodd" d="M7.64764 8.25676C7.70783 8.28568 7.74509 8.36953 7.74509 8.49098V15.4597C7.74509 15.5811 7.70783 15.6534 7.64764 15.6765C7.59032 15.6997 7.50721 15.6765 7.40976 15.6042C7.40976 15.6042 7.40976 15.6042 4.12234 12.2616C3.93318 12.1199 3.93318 11.8307 4.12234 11.6399C4.12234 11.6399 4.12234 11.6399 7.40976 8.3464C7.50721 8.25098 7.59032 8.22785 7.64764 8.25676Z" fill="#D00000"/>
<path fill-rule="evenodd" clip-rule="evenodd" d="M11.793 13.7422C11.793 13.7422 11.793 13.7422 14.2206 13.7422C14.5072 13.7422 14.6992 13.933 14.6992 14.173C14.6992 14.173 14.6992 14.173 14.6992 16.7986C14.6992 17.0848 14.8884 17.2757 15.1263 17.2757H16.4132C16.6511 17.2757 16.7456 17.4174 16.5565 17.5619C16.5565 17.5619 16.5565 17.5619 13.3178 20.8554C13.2203 20.9509 13.1028 21 12.9825 21C12.8649 21 12.7446 20.9509 12.65 20.8554C12.65 20.8554 12.65 20.8554 9.41129 17.5619C9.21927 17.4174 9.31385 17.2757 9.55173 17.2757C9.55173 17.2757 9.55173 17.2757 10.9332 17.2757C11.1739 17.2757 11.3631 17.0848 11.3631 16.7986C11.3631 16.7986 11.3631 16.7986 11.3631 14.173C11.3631 13.933 11.5551 13.7422 11.793 13.7422Z" fill="#D00000"/>
</svg>
