<svg width="32" height="32" viewBox="0 0 32 32" fill="none" xmlns="http://www.w3.org/2000/svg">
<rect width="32" height="32" rx="16" fill="#F8F8F8"/>
<path d="M10 16.5C10 17.8807 8.88071 19 7.5 19C6.11929 19 5 17.8807 5 16.5C5 15.1193 6.11929 14 7.5 14C8.88071 14 10 15.1193 10 16.5Z" fill="#4C4C4C"/>
<path d="M19 16.5C19 17.8807 17.8807 19 16.5 19C15.1193 19 14 17.8807 14 16.5C14 15.1193 15.1193 14 16.5 14C17.8807 14 19 15.1193 19 16.5Z" fill="#4C4C4C"/>
<path d="M28 16.5C28 17.8807 26.8807 19 25.5 19C24.1193 19 23 17.8807 23 16.5C23 15.1193 24.1193 14 25.5 14C26.8807 14 28 15.1193 28 16.5Z" fill="#4C4C4C"/>
</svg>
