<svg width="24" height="24" viewBox="0 0 24 24" fill="none" xmlns="http://www.w3.org/2000/svg">
<path fill-rule="evenodd" clip-rule="evenodd" d="M12 4C10.0375 4 8.44661 5.567 8.44661 7.5C8.44661 9.433 10.0375 11 12 11C13.9625 11 15.5534 9.433 15.5534 7.5C15.5534 5.567 13.9625 4 12 4ZM6.41611 7.5C6.41611 4.46243 8.9161 2 12 2C15.0839 2 17.5839 4.46243 17.5839 7.5C17.5839 10.5376 15.0839 13 12 13C8.9161 13 6.41611 10.5376 6.41611 7.5ZM12 16C9.11766 16 6.54859 17.3693 4.90728 19.5088C4.80688 19.6397 4.73004 19.74 4.66612 19.8281C4.61759 19.895 4.58447 19.9442 4.56141 19.9814C4.71231 19.9984 4.92731 20 5.32698 20H18.673C19.0727 20 19.2877 19.9984 19.4386 19.9814C19.4155 19.9442 19.3824 19.895 19.3339 19.8281C19.27 19.74 19.1931 19.6397 19.0927 19.5088C17.4514 17.3693 14.8823 16 12 16ZM3.28725 18.3031C5.2903 15.692 8.44547 14 12 14C15.5545 14 18.7097 15.692 20.7128 18.3031C20.7218 18.3149 20.7309 18.3268 20.74 18.3387C20.9123 18.563 21.0969 18.8035 21.2289 19.0356C21.3886 19.3165 21.507 19.6414 21.4997 20.0366C21.4938 20.3542 21.3961 20.6516 21.2774 20.8864C21.1588 21.1212 20.9768 21.3772 20.723 21.5734C20.3846 21.835 20.0162 21.9276 19.6889 21.9662C19.4017 22.0001 19.0614 22.0001 18.7193 22C18.7039 22 18.6884 22 18.673 22H5.32698C5.31156 22 5.29613 22 5.28071 22C4.93858 22.0001 4.59828 22.0001 4.31113 21.9662C3.98382 21.9276 3.61538 21.835 3.27697 21.5734C3.02321 21.3772 2.84125 21.1212 2.72259 20.8864C2.60393 20.6516 2.50622 20.3542 2.50032 20.0366C2.49299 19.6414 2.61137 19.3165 2.77111 19.0356C2.90307 18.8035 3.08774 18.563 3.25996 18.3387C3.26909 18.3268 3.27819 18.3149 3.28725 18.3031Z" fill="black"/>
</svg>
