<svg width="24" height="24" viewBox="0 0 24 24" fill="none" xmlns="http://www.w3.org/2000/svg">
<path fill-rule="evenodd" clip-rule="evenodd" d="M11.5737 18.8946C15.882 18.8946 19.3745 15.402 19.3745 11.0937C19.3745 6.78538 15.882 3.29282 11.5737 3.29282C7.26537 3.29282 3.7728 6.78538 3.7728 11.0937C3.7728 15.402 7.26537 18.8946 11.5737 18.8946ZM11.5737 20.808C16.9387 20.808 21.288 16.4587 21.288 11.0937C21.288 5.72863 16.9387 1.37939 11.5737 1.37939C6.20861 1.37939 1.85938 5.72863 1.85938 11.0937C1.85938 16.4587 6.20861 20.808 11.5737 20.808Z" fill="#121212"/>
<path fill-rule="evenodd" clip-rule="evenodd" d="M22.2305 23.1035L17.3734 18.2464L18.7264 16.8934L23.5835 21.7505L22.2305 23.1035Z" fill="#121212"/>
</svg>
