<svg width="25" height="24" viewBox="0 0 25 24" fill="none" xmlns="http://www.w3.org/2000/svg">
<g clip-path="url(#clip0_1_7432)">
<path d="M12.9805 24C19.6079 24 24.9805 18.6274 24.9805 12C24.9805 5.37258 19.6079 0 12.9805 0C6.35305 0 0.980469 5.37258 0.980469 12C0.980469 18.6274 6.35305 24 12.9805 24Z" fill="#37AEE2"/>
<path d="M5.44931 12.5872C6.85211 11.8145 8.41801 11.1696 9.88111 10.5214C12.3982 9.45966 14.9253 8.41636 17.4779 7.44506C17.9745 7.27956 18.8669 7.11776 18.9544 7.85376C18.9064 8.89556 18.7094 9.93126 18.5742 10.967C18.2311 13.2446 17.8344 15.5144 17.4477 17.7845C17.3144 18.5406 16.3672 18.9321 15.7611 18.4482C14.3045 17.4642 12.8367 16.49 11.3987 15.4832C10.9277 15.0046 11.3645 14.3172 11.7851 13.9754C12.9848 12.7931 14.2571 11.7886 15.3941 10.5452C15.7008 9.80456 14.7946 10.4288 14.4957 10.6201C12.8533 11.7519 11.2511 12.9528 9.51951 13.9475C8.63501 14.4344 7.60411 14.0183 6.72001 13.7465C5.92731 13.4184 4.76571 13.0877 5.44921 12.5873L5.44931 12.5872Z" fill="#F8F8F8"/>
</g>
<defs>
<clipPath id="clip0_1_7432">
<rect width="24" height="24" fill="white" transform="translate(0.980469)"/>
</clipPath>
</defs>
</svg>
