<svg width="20" height="22" viewBox="0 0 20 22" fill="none" xmlns="http://www.w3.org/2000/svg">
<path fill-rule="evenodd" clip-rule="evenodd" d="M6.60793 3.7037H13.3921C13.3394 3.62991 13.2831 3.55552 13.2229 3.48127C12.6224 2.73986 11.6395 2 10 2C8.36049 2 7.37761 2.73986 6.77706 3.48127C6.71693 3.55552 6.6606 3.62991 6.60793 3.7037ZM15.6882 3.7037C15.5056 3.29978 15.2149 2.76294 14.7771 2.22243C13.8776 1.112 12.3605 0 10 0C7.63951 0 6.12239 1.112 5.22294 2.22243C4.78512 2.76294 4.49439 3.29978 4.31176 3.7037H0V5.7037H1.94097L3.36954 22H16.6305L18.059 5.7037H20V3.7037H15.6882ZM16.0514 5.7037H3.94864L5.20189 20H14.7981L16.0514 5.7037Z" fill="#868686"/>
</svg>
