<svg width="25" height="24" viewBox="0 0 25 24" fill="none" xmlns="http://www.w3.org/2000/svg">
<path d="M18.4582 13.3334C18.4577 13.3333 12.6749 11.9847 12.6749 11.9847C10.9513 11.5827 9.87001 9.81687 10.26 8.04051C10.6501 6.26414 12.3637 5.15012 14.0873 5.55197C15.8111 5.95396 16.8923 7.71979 16.5023 9.49604C16.3069 10.3854 15.7797 11.1081 15.0856 11.5583C15.0855 11.5583 15.0839 11.5597 15.0832 11.5601C15.0628 11.5752 15.0496 11.5998 15.0496 11.6274C15.0496 11.6661 15.0755 11.6987 15.1106 11.7074C15.1107 11.7075 17.6831 12.307 17.6836 12.307C17.7448 12.3213 17.8084 12.297 17.846 12.2457C17.8462 12.2453 17.8461 12.2456 17.8461 12.2456C18.5548 11.2793 18.9805 10.0734 18.9805 8.76924C18.9805 5.69783 16.6519 3.18778 13.7148 3.00951C13.6886 3.00801 13.5295 3.00161 13.4757 3.00082C12.1753 2.97978 10.8567 3.36404 9.71018 4.19153C6.81466 6.28082 6.11115 10.3933 8.13836 13.377L13.2833 20.9491C13.3053 20.98 13.3407 21 13.3804 21C13.4204 21 13.4559 20.9797 13.4778 20.9486C13.4778 20.9486 18.53 13.5237 18.5305 13.523C18.5434 13.5033 18.551 13.4794 18.551 13.4538C18.551 13.3951 18.5114 13.3459 18.4582 13.3334Z" fill="#FFD027"/>
</svg>
