<svg width="25" height="24" viewBox="0 0 25 24" fill="none" xmlns="http://www.w3.org/2000/svg">
<path fill-rule="evenodd" clip-rule="evenodd" d="M14.8053 6.74545L5.61679 6.74545L5.61679 14.3315H14.8053V6.74545ZM5.61679 5C4.71307 5 3.98047 5.78146 3.98047 6.74545V14.3315C3.98047 15.2955 4.71307 16.0769 5.61679 16.0769H16.4417V6.74545C16.4417 5.78147 15.7091 5 14.8053 5H5.61679Z" fill="#121212"/>
<path fill-rule="evenodd" clip-rule="evenodd" d="M19.3844 10.9466V9.6993C19.3844 8.73531 18.6518 7.95384 17.7481 7.95384L16.4417 7.75222V16.0769L21.9805 16.0769V12.0154L19.3844 10.9466ZM20.3441 13.2126L17.7481 12.1438L17.7481 9.6993H16.4417V14.3315H20.3441V13.2126Z" fill="#121212"/>
<path fill-rule="evenodd" clip-rule="evenodd" d="M7.42995 17.2545C7.66529 17.2545 7.85607 17.051 7.85607 16.8C7.85607 16.549 7.66529 16.3455 7.42995 16.3455C7.19461 16.3455 7.00382 16.549 7.00382 16.8C7.00382 17.051 7.19461 17.2545 7.42995 17.2545ZM7.42995 19C8.569 19 9.49239 18.015 9.49239 16.8C9.49239 15.585 8.569 14.6 7.42995 14.6C6.29089 14.6 5.3675 15.585 5.3675 16.8C5.3675 18.015 6.29089 19 7.42995 19Z" fill="#121212"/>
<path fill-rule="evenodd" clip-rule="evenodd" d="M18.5071 17.2545C18.7424 17.2545 18.9332 17.051 18.9332 16.8C18.9332 16.549 18.7424 16.3455 18.5071 16.3455C18.2717 16.3455 18.0809 16.549 18.0809 16.8C18.0809 17.051 18.2717 17.2545 18.5071 17.2545ZM18.5071 19C19.6461 19 20.5695 18.015 20.5695 16.8C20.5695 15.585 19.6461 14.6 18.5071 14.6C17.368 14.6 16.4446 15.585 16.4446 16.8C16.4446 18.015 17.368 19 18.5071 19Z" fill="#121212"/>
</svg>
