<svg width="25" height="24" viewBox="0 0 25 24" fill="none" xmlns="http://www.w3.org/2000/svg">
<path fill-rule="evenodd" clip-rule="evenodd" d="M7.09666 6C7.09666 5.44772 7.52085 5 8.04411 5H21.033C21.5563 5 21.9805 5.44772 21.9805 6C21.9805 6.55228 21.5563 7 21.033 7H8.04411C7.52085 7 7.09666 6.55228 7.09666 6Z" fill="#121212"/>
<path fill-rule="evenodd" clip-rule="evenodd" d="M7.09524 12C7.09524 11.4477 7.51942 11 8.04268 11H21.0316C21.5549 11 21.979 11.4477 21.979 12C21.979 12.5523 21.5549 13 21.0316 13H8.04268C7.51942 13 7.09524 12.5523 7.09524 12Z" fill="#121212"/>
<path fill-rule="evenodd" clip-rule="evenodd" d="M7.09666 18C7.09666 17.4477 7.52085 17 8.04411 17H21.033C21.5563 17 21.9805 17.4477 21.9805 18C21.9805 18.5523 21.5563 19 21.033 19H8.04411C7.52085 19 7.09666 18.5523 7.09666 18Z" fill="#121212"/>
<path d="M5.87535 6C5.87535 6.55228 5.45117 7 4.92791 7C4.40465 7 3.98047 6.55228 3.98047 6C3.98047 5.44772 4.40465 5 4.92791 5C5.45117 5 5.87535 5.44772 5.87535 6Z" fill="#121212"/>
<path d="M5.87535 12C5.87535 12.5523 5.45117 13 4.92791 13C4.40465 13 3.98047 12.5523 3.98047 12C3.98047 11.4477 4.40465 11 4.92791 11C5.45117 11 5.87535 11.4477 5.87535 12Z" fill="#121212"/>
<path d="M5.87535 18C5.87535 18.5523 5.45117 19 4.92791 19C4.40465 19 3.98047 18.5523 3.98047 18C3.98047 17.4477 4.40465 17 4.92791 17C5.45117 17 5.87535 17.4477 5.87535 18Z" fill="#121212"/>
</svg>
