<svg width="25" height="24" viewBox="0 0 25 24" fill="none" xmlns="http://www.w3.org/2000/svg">
<g clip-path="url(#clip0_1_7426)">
<path d="M24.9805 12C24.9805 5.37258 19.6079 0 12.9805 0C6.35305 0 0.980469 5.37258 0.980469 12C0.980469 18.6274 6.35305 24 12.9805 24C19.6079 24 24.9805 18.6274 24.9805 12Z" fill="#9747FF"/>
<path d="M18.8572 6.09225C18.4603 5.72735 16.8533 4.55891 13.2712 4.54291C13.2712 4.54291 9.04884 4.28681 6.99049 6.1755C5.84446 7.3215 5.44111 8.99575 5.3995 11.0765C5.35788 13.154 5.30346 17.0499 9.05844 18.1062H9.06164L9.05844 19.7164C9.05844 19.7164 9.03604 20.3695 9.46499 20.5007C9.98359 20.6608 10.2909 20.1646 10.7871 19.63C11.0592 19.3355 11.4337 18.9065 11.7186 18.5768C14.2859 18.7913 16.2611 18.2983 16.4851 18.2247C17.0037 18.055 19.9392 17.6805 20.4162 13.7847C20.9092 9.7768 20.1761 7.2383 18.8572 6.09225ZM19.2926 13.503C18.8892 16.7553 16.5107 16.9602 16.0722 17.1011C15.8865 17.1619 14.1515 17.5941 11.9683 17.45C11.9683 17.45 10.3421 19.4123 9.83634 19.9213C9.75629 20.0013 9.66344 20.0333 9.60264 20.0173C9.51619 19.9949 9.49059 19.8925 9.49379 19.742C9.49379 19.5244 9.50659 17.0627 9.50659 17.0627C9.50339 17.0627 9.50339 17.0627 9.50659 17.0627C6.32784 16.1823 6.51349 12.8659 6.54874 11.1309C6.58394 9.3959 6.91044 7.97135 7.88039 7.0142C9.61864 5.43925 13.2071 5.6729 13.2071 5.6729C16.2354 5.6857 17.6856 6.59805 18.0217 6.90215C19.1389 7.8625 19.7087 10.1513 19.2926 13.503Z" fill="#F8F8F8"/>
<path d="M14.748 11.1917C14.6424 11.1917 14.5527 11.1085 14.5463 10.9996C14.5111 10.3114 14.1878 9.97529 13.5284 9.94009C13.4163 9.93369 13.3299 9.83764 13.3363 9.72559C13.3427 9.61354 13.4387 9.52714 13.5508 9.53354C14.4215 9.58154 14.9081 10.0809 14.9529 10.9772C14.9593 11.0893 14.8729 11.1853 14.7608 11.1885C14.7544 11.1917 14.7512 11.1917 14.748 11.1917Z" fill="#F8F8F8"/>
<path d="M15.7841 11.5376H15.7809C15.6688 11.5344 15.5792 11.4416 15.5824 11.3296C15.5984 10.6381 15.3999 10.0779 14.9774 9.61691C14.558 9.15596 13.9786 8.90626 13.2135 8.85186C13.1015 8.84226 13.0183 8.74621 13.0279 8.63416C13.0375 8.52211 13.1335 8.43891 13.2456 8.44851C14.1099 8.51251 14.7917 8.81341 15.2783 9.34481C15.7681 9.87941 16.005 10.5485 15.989 11.3392C15.9858 11.4512 15.8929 11.5376 15.7841 11.5376Z" fill="#F8F8F8"/>
<path d="M16.8455 11.9538C16.7334 11.9538 16.6438 11.8641 16.6438 11.7521C16.6342 10.5132 16.2788 9.56889 15.5554 8.86144C14.8415 8.16359 13.9356 7.80824 12.8696 7.79864C12.7576 7.79864 12.6679 7.70584 12.6679 7.59379C12.6679 7.48174 12.7608 7.39209 12.8696 7.39209C14.0444 7.40169 15.0432 7.79544 15.8339 8.57014C16.6278 9.34484 17.0343 10.414 17.0471 11.7457C17.0503 11.8609 16.9607 11.9538 16.8455 11.9538C16.8487 11.9538 16.8487 11.9538 16.8455 11.9538ZM13.5739 13.6983C13.5739 13.6983 13.8588 13.724 14.0124 13.5351L14.3101 13.1606C14.4542 12.9749 14.8031 12.8564 15.1424 13.0453C15.3313 13.1509 15.6738 13.3622 15.8851 13.5191C16.1124 13.6855 16.5734 14.0697 16.5766 14.0729C16.7974 14.2586 16.8487 14.5307 16.6982 14.822C16.6982 14.822 16.6982 14.8252 16.6982 14.8284C16.5445 15.1005 16.3365 15.3566 16.0772 15.5934C16.074 15.5934 16.074 15.5966 16.0708 15.5966C15.8563 15.7759 15.645 15.8783 15.4401 15.9008C15.4145 15.9072 15.3857 15.9072 15.3473 15.9072C15.2577 15.9072 15.168 15.8944 15.0784 15.8655L15.072 15.8559C14.7519 15.7663 14.2205 15.5422 13.337 15.0524C12.7608 14.7355 12.2838 14.4122 11.8772 14.0889C11.6628 13.9192 11.4451 13.7304 11.221 13.5063C11.2146 13.4999 11.205 13.4903 11.1986 13.4839C11.1922 13.4775 11.1826 13.4679 11.1762 13.4615C11.1698 13.4551 11.1602 13.4455 11.1538 13.4391C11.1474 13.4327 11.1378 13.423 11.1314 13.4166C10.9105 13.1926 10.7184 12.9749 10.5488 12.7604C10.2254 12.3571 9.90212 11.8769 9.58522 11.3007C9.09542 10.4139 8.87132 9.88259 8.78172 9.56564L8.77212 9.55924C8.74327 9.46964 8.73047 9.37999 8.73047 9.29034C8.73047 9.25194 8.73047 9.22314 8.73687 9.19754C8.76252 8.98944 8.86492 8.78134 9.04102 8.56689C9.04102 8.56369 9.04422 8.56369 9.04422 8.56049C9.28107 8.29799 9.53717 8.09309 9.80927 7.93944C9.80927 7.93944 9.81247 7.93944 9.81567 7.93944C10.1038 7.78899 10.3759 7.84024 10.5648 8.06109C10.5648 8.06109 10.9521 8.52529 11.1186 8.75254C11.2754 8.96704 11.4867 9.30634 11.5923 9.49524C11.7812 9.83454 11.6628 10.1835 11.4771 10.3275L11.1026 10.6252C10.9137 10.7789 10.9393 11.0638 10.9393 11.0638C10.9393 11.0638 11.4931 13.1702 13.5739 13.6983Z" fill="#F8F8F8"/>
</g>
<defs>
<clipPath id="clip0_1_7426">
<rect width="24" height="24" fill="white" transform="translate(0.980469)"/>
</clipPath>
</defs>
</svg>
