<svg width="26" height="24" viewBox="0 0 26 24" fill="#2A8927" xmlns="http://www.w3.org/2000/svg" >
<g clip-path="url(#clip0_1_7421)">
<circle cx="12.9805" cy="12" r="6" fill="none"/>
<path d="M11.4202 20.9789C6.84948 20.8941 5.28837 20.8177 4.32881 20.6183C3.67961 20.4858 3.11545 20.1917 2.70179 19.7651C2.38209 19.4422 2.12784 18.9495 1.93059 18.266C1.76138 17.6966 1.69548 17.2228 1.60153 16.0655C1.45771 13.4536 1.42343 11.3183 1.60153 8.93228C1.74847 7.61467 1.81972 6.05051 2.79575 5.13798C3.2566 4.7109 3.79271 4.43606 4.39471 4.32244C5.33512 4.14236 9.34166 4 13.4894 4C17.6277 4 21.6431 4.14236 22.5844 4.32244C23.3365 4.4648 24.0418 4.89143 24.4559 5.44156C25.3464 6.85437 25.362 8.61119 25.4524 9.98538C25.4898 10.6401 25.4898 14.3581 25.4524 15.0129C25.3117 17.1846 25.1986 17.953 24.8789 18.7497C24.6812 19.2527 24.5125 19.5181 24.2204 19.8122C23.7622 20.2649 23.1782 20.566 22.5461 20.6754C18.5908 20.9753 15.2321 21.0405 11.4202 20.9789ZM17.4772 12.2524C15.2767 11.0663 13.1696 9.96652 11.0159 8.82809V15.6389C13.2823 14.3963 15.6716 13.2578 17.4865 12.2429L17.4772 12.2524Z" fill="#2A8927"/>
</g>
<defs>
<clipPath id="clip0_1_7421">
<rect width="25" height="24" fill="white" transform="translate(0.980469)"/>
</clipPath>
</defs>
</svg>
