<svg width="1183" height="713" viewBox="0 0 1183 713" fill="none" xmlns="http://www.w3.org/2000/svg">
<g clip-path="url(#clip0_2086_19101)">
<path d="M1107.12 459.874C1112.76 450.914 1126.71 460.014 1135.58 457.014C1148.43 452.664 1155.65 442.384 1161.19 428.444C1176.63 396.564 1149.51 346.484 1112.82 362.724C1047.65 402.214 1070.48 577.634 1169.73 501.304C1175.33 499.194 1181.57 500.354 1184.16 505.474C1186.98 511.034 1185.19 518.254 1179.68 524.164C1170.29 534.234 1160.58 540.034 1146.96 541.304C1050.4 550.344 1039.54 421.924 1084.37 367.004C1132.31 310.274 1198.08 374.304 1179.68 434.154C1173.07 455.664 1162.56 473.794 1141.27 479.874C1131.38 482.694 1116.84 482.674 1108.55 474.164C1105.23 470.754 1103.07 467.074 1107.12 459.874Z" fill="#00710F"/>
<path d="M184.48 309C184.48 309 171.65 339 167.48 345H189.98C198.1 322.89 215.27 272.67 213.48 243.5C214.57 199.42 200.41 149.4 181.48 115.5L176.48 120.5C206.11 177.09 207.39 250.31 184.48 309Z" fill="#00710F"/>
<path d="M211.48 112C211.48 112 203.98 121.33 202.48 124C208.02 61.87 270.34 64.63 284.98 25C301.31 49.07 293.27 88.28 274.48 109C259.85 126.13 230.16 137.21 208.98 128C220.55 92.99 265.36 85.06 276.98 50C262.56 77.94 229.3 87.44 211.48 112Z" fill="#00710F"/>
<path d="M187.032 103.5C186.052 107.14 182.032 113 182.032 113C172.542 56.42 121.342 81.03 100.532 31C107.072 50.74 121.332 68.5 142.032 75C163.762 81.14 176.282 98.12 177.532 120.5C120.082 149.87 78.052 43.62 91.532 -1C107.472 57.48 203.132 41.27 187.032 103.5Z" fill="#00710F"/>
<path d="M157 146.284C160.3 147.804 164.5 151.784 164.5 151.784C130.87 156.584 105.64 192.354 70.5 190.784C120.15 196.814 125.96 164.184 169 158.784C180.88 235.164 64.54 230.574 32 184.284C79.29 196.194 109.1 131.204 157 146.284Z" fill="#00710F"/>
<path fill-rule="evenodd" clip-rule="evenodd" d="M179.98 713C414.8 712.65 423.33 357.77 189.86 345.26L189.98 345C-55.26 332.74 -67.8 711.58 179.98 713ZM167.26 345.43C138.89 401.68 124.55 475.16 152.48 535.5C123.89 520.19 121.72 475.96 129.98 448C58.04 513.27 97.16 621.09 194.48 628C256.22 637.42 256.12 588.33 213.48 559.5C133.58 521.6 159.33 409.64 189.87 345.26C182.39 344.86 174.72 344.92 167.27 345.43H167.26ZM215.62 537.5C234.7 551.92 248.55 575.87 252.97 598.5C293.25 546.06 257.05 461.66 188.48 460.16C165.67 457.28 169.32 488.18 176.47 501.5C183.68 519.05 202.2 525.8 215.61 537.5H215.62Z" fill="#00710F"/>
<path d="M1055.17 209.3C1053.13 211.52 1050.17 216.8 1050.17 216.8C1050.17 216.8 1054.9 213.44 1057.67 212.3C1061.67 210.66 1063.51 209.82 1067.47 209.09C1070.22 208.58 1071.82 208.25 1074.61 208C1077.39 207.74 1078.93 207.88 1081.72 207.79C1084.7 207.69 1089.35 208 1089.35 208C1089.35 208 1094.43 208.1 1097.67 208.4C1100.86 208.69 1101.62 208.71 1104.17 208.81C1108.46 208.98 1110.87 208.96 1115.17 208.81C1119.09 208.67 1121.76 208.68 1125.17 207.79C1128.11 207.02 1132.3 204.67 1132.3 204.67C1132.3 204.67 1129.67 207.31 1127.67 208.4C1125.67 209.49 1123.72 210.31 1119.67 211.31L1119.51 211.35C1116.38 212.12 1114.93 212.47 1111.67 212.81C1107.23 213.27 1104.96 212.91 1100.67 212.81C1096.56 212.71 1093.95 212.43 1090.17 212.31C1086.38 212.19 1083.15 212.03 1078.67 212.31C1074.96 212.54 1073.06 212.63 1069.21 213.38C1063.37 214.53 1060.33 216.35 1055.17 219.31C1051.41 221.46 1046.05 225.63 1046.05 225.63L1051.3 231.63L1059.05 237.13L1066.67 241.81L1077.78 246.07C1077.78 246.07 1083.53 247.95 1087.35 248.63C1092.76 249.6 1097.05 249.63 1102.55 249.63C1107.01 249.63 1117.17 248.63 1117.17 248.63C1117.17 248.63 1125.39 247.3 1130.67 244.31C1135.94 241.32 1142.17 237.13 1142.17 237.13C1146.01 234.38 1152.17 228.81 1152.17 228.81L1160.67 217.31C1160.67 217.31 1161.86 214.94 1164.67 209.81C1166.62 206.24 1167.11 203.7 1168.36 199.83C1169.33 196.8 1169.86 194.74 1170.55 191.63C1171.31 188.26 1172.5 183 1172.5 183C1172.5 183 1166.6 186.14 1162.67 187.81C1160.16 188.87 1158.53 189.61 1156.17 190.31C1153.08 191.23 1151.95 191.73 1149.17 192.31C1146.08 192.95 1144.29 193.41 1141.17 193.81C1138.24 194.19 1136.62 194.17 1133.67 194.31C1130.15 194.47 1128.17 194.13 1124.67 193.81C1121.53 193.52 1119.79 193.2 1116.67 192.81C1112.99 192.35 1111.48 191.72 1107.26 191.61C1101.5 191.47 1098.41 191.27 1092.67 191.81C1086.64 192.38 1083.02 192.88 1077.19 194.54C1070.95 196.32 1068.21 198.6 1063.17 202.31C1059.82 204.77 1057.97 206.25 1055.17 209.31V209.3Z" fill="#00710F"/>
<path d="M1013 216.99C1013 216.99 1010.04 211.71 1008 209.49C1005.19 206.43 1003.34 204.95 1000 202.49C994.95 198.78 992.21 196.5 985.97 194.72C980.15 193.06 976.53 192.56 970.5 191.99C964.76 191.45 961.67 191.65 955.91 191.79C951.69 191.89 950.18 192.52 946.5 192.99C943.38 193.38 941.64 193.7 938.5 193.99C934.99 194.31 933.02 194.65 929.5 194.49C926.55 194.35 924.93 194.37 922 193.99C918.88 193.59 917.08 193.13 914 192.49C911.22 191.91 910.09 191.41 907 190.49C904.63 189.79 903 189.05 900.5 187.99C896.57 186.32 890.67 183.18 890.67 183.18C890.67 183.18 891.86 188.44 892.62 191.81C893.31 194.91 893.84 196.98 894.82 200.01C896.07 203.88 896.56 206.43 898.51 209.99C901.32 215.12 902.51 217.49 902.51 217.49L911.01 228.99C911.01 228.99 917.17 234.57 921.01 237.31C921.01 237.31 927.23 241.49 932.51 244.49C937.79 247.48 946.01 248.81 946.01 248.81C946.01 248.81 956.17 249.81 960.62 249.81C966.12 249.81 970.41 249.78 975.83 248.81C979.65 248.13 985.39 246.25 985.39 246.25L996.51 241.99L1004.12 237.31L1011.88 231.81L1017.12 225.81C1017.12 225.81 1011.77 221.64 1008.01 219.49C1002.84 216.54 999.81 214.72 993.97 213.57C990.12 212.81 988.22 212.72 984.51 212.49C980.03 212.21 976.8 212.37 973.01 212.49C969.22 212.61 966.61 212.89 962.51 212.99C958.22 213.09 955.94 213.45 951.51 212.99C948.25 212.65 946.8 212.3 943.67 211.53L943.51 211.49C939.46 210.5 937.51 209.67 935.51 208.58C933.51 207.49 930.87 204.85 930.87 204.85C930.87 204.85 935.06 207.2 938.01 207.97C941.42 208.86 944.09 208.85 948.01 208.99C952.31 209.14 954.72 209.16 959.01 208.99C961.55 208.89 962.32 208.87 965.51 208.58C968.75 208.29 973.82 208.18 973.82 208.18C973.82 208.18 978.47 207.87 981.45 207.97C984.24 208.06 985.78 207.93 988.57 208.18C991.35 208.44 992.96 208.76 995.71 209.27C999.67 210.01 1001.51 210.84 1005.51 212.49C1008.27 213.62 1013.01 216.99 1013.01 216.99H1013Z" fill="#00710F"/>
<path fill-rule="evenodd" clip-rule="evenodd" d="M366.93 192.53C384.62 254.08 394.09 312.56 400.92 376.23C407.39 420.63 412.45 448.93 413.74 495.09C412.65 546.3 418.28 627.49 380.7 666.86C373.82 674.07 367.53 680.48 366.73 688.05C364.32 711.04 390.94 715.14 407.37 705.13C474.19 664.45 434.3 495.95 430.91 416.73C509.04 408.54 579.83 367.79 598.34 280.51C612.65 210.72 580.61 115.6 501.25 104.53C451.48 97.9998 412.07 117.76 381.35 155.47C387.49 96.0698 337.15 96.1198 360.45 164.73C360.45 164.73 364.38 181.67 366.93 192.52V192.53ZM404.55 275.89C398.05 235.93 385.08 174.01 385.08 174.01C406.14 143.4 455.15 114.86 499.63 135.42C526.27 147.73 538.21 171.62 550.25 207.97C559.39 235.57 558.67 254.29 550.25 283.61C535.68 334.31 511.51 386.05 452.75 396.3C440.66 398.41 420.49 397.12 419.08 385.49C414.4 346.87 411.48 318.5 404.54 275.89H404.55Z" fill="#00710F"/>
<path d="M651.21 111.44C650.93 104.84 638.75 104.84 638.75 111.44C634.54 211.68 639.05 382.48 625.29 486.94C623.17 503.01 618.28 542.49 642.42 542.49C669.77 542.49 663.2 500.53 661.19 485.04C649.79 397.13 655.53 212.65 651.21 111.44Z" fill="#00710F"/>
<path d="M896.15 381.31C890.94 403.74 891.34 357.92 888.46 330.74C887.83 324.75 874.07 327.88 875.51 336.46C879.18 358.37 881.65 370.36 884.14 392.26C887.35 420.49 879.82 463.8 879.82 463.8C879.82 463.8 879.09 484.33 872.74 503.86C869.02 515.3 862.84 539.65 884.14 539.63C898.77 540.15 904.07 523.25 899.97 508.15C895.34 491.1 895.65 465.22 895.65 465.22C895.17 449.96 895.9 429.69 902.84 409.42C908.64 386.58 935.47 343.15 958.96 369.36C987.15 400.81 951.12 491.07 967.59 528.18C974.91 542.99 998.79 542.01 1002.12 525.32C1007.53 488.14 969.8 515.52 979.1 448.13C981.8 428.53 991.01 366.15 966.15 349.33C935.77 328.77 904.28 354.25 896.14 381.3L896.15 381.31Z" fill="#00710F"/>
<path d="M1038.47 110.29C1038.43 105.22 1024.21 105.22 1024.21 110.29C1029.02 216.32 1013.43 571.5 1035.59 663.31C1050.44 724.81 1142.24 726.97 1173.87 677.57C1180.49 667.24 1186.88 635.89 1173.87 628.27C1165.83 623.57 1154.48 627.96 1151.07 636.05C1146.81 646.15 1148.72 657.84 1141.09 667.19C1125.94 685.74 1100.4 690.95 1079.79 681.46C1059.18 671.97 1054.18 654.22 1048.48 628.27C1023.93 516.5 1041.04 92.2898 1038.47 110.28V110.29Z" fill="#00710F"/>
<path d="M834.645 345.186C842.395 345.596 840.355 356.146 834.645 356.146C817.845 356.146 801.505 357.356 787.545 362.996C688.805 394.206 718.505 573.276 807.525 512.296C815.225 507.016 816.085 465.726 820.365 410.936C820.795 405.476 828.925 404.086 828.925 410.936C828.995 418.206 818.655 507.106 823.405 540.606C825.475 556.596 837.195 569.546 859.405 566.436C863.855 565.816 870.835 557.656 880.345 562.836C901.795 576.376 859.995 616.346 823.505 581.786C809.345 568.826 814.655 531.466 804.665 536.946C650.265 579.576 669.165 337.366 834.635 345.186H834.645Z" fill="#00710F"/>
</g>
<defs>
<clipPath id="clip0_2086_19101">
<rect width="1183" height="713" fill="white"/>
</clipPath>
</defs>
</svg>
