<svg width="20" height="21" viewBox="0 0 20 21" fill="none" xmlns="http://www.w3.org/2000/svg">
<path fill-rule="evenodd" clip-rule="evenodd" d="M14.676 0.627069C11.5298 -0.0762104 8.26718 -0.0762104 5.12101 0.627069L4.78201 0.702069C3.89702 0.89993 3.08421 1.33925 2.43387 1.97123C1.78353 2.60322 1.32112 3.40311 1.09801 4.28207C0.300502 7.42459 0.300502 10.7165 1.09801 13.8591C1.31078 14.6973 1.74141 15.4644 2.34624 16.0826C2.95107 16.7008 3.70859 17.148 4.54201 17.3791L5.00701 20.1551C5.02185 20.2432 5.06005 20.3258 5.11764 20.3941C5.17523 20.4625 5.25009 20.5142 5.33443 20.5438C5.41877 20.5734 5.50951 20.5799 5.5972 20.5625C5.68489 20.5451 5.76632 20.5046 5.83301 20.4451L8.564 18.0021C10.6141 18.1272 12.6716 17.9632 14.676 17.5151L15.016 17.4401C15.901 17.2422 16.7138 16.8029 17.3641 16.1709C18.0145 15.5389 18.4769 14.739 18.7 13.8601C19.4974 10.7175 19.4974 7.4256 18.7 4.28307C18.4768 3.40399 18.0142 2.604 17.3637 1.97201C16.7132 1.34001 15.9002 0.900765 15.015 0.703069L14.676 0.627069ZM5.96501 4.20107C5.77915 4.17402 5.58964 4.21143 5.42801 4.30707H5.41401C5.03901 4.52707 4.70101 4.80407 4.41301 5.13007C4.17301 5.40707 4.043 5.68707 4.00901 5.95707C3.98901 6.11707 4.00301 6.27907 4.05001 6.43207L4.06801 6.44207C4.33801 7.23507 4.69001 7.99807 5.12001 8.71607C5.67446 9.72456 6.35676 10.6573 7.15 11.4911L7.17401 11.5251L7.21201 11.5531L7.235 11.5801L7.263 11.6041C8.09973 12.3997 9.03463 13.0852 10.045 13.6441C11.2 14.2731 11.901 14.5701 12.322 14.6941V14.7001C12.445 14.7381 12.557 14.7551 12.67 14.7551C13.0285 14.7286 13.3679 14.5828 13.634 14.3411C13.959 14.0531 14.234 13.7141 14.448 13.3371V13.3301C14.649 12.9501 14.581 12.5921 14.291 12.3491C13.7085 11.8401 13.0786 11.388 12.41 10.9991C11.962 10.7561 11.507 10.9031 11.323 11.1491L10.93 11.6451C10.728 11.8911 10.362 11.8571 10.362 11.8571L10.352 11.8631C7.62101 11.1661 6.89201 8.40107 6.89201 8.40107C6.89201 8.40107 6.85801 8.02507 7.11101 7.83307L7.603 7.43707C7.839 7.24507 8.00301 6.79107 7.75001 6.34307C7.36361 5.67383 6.91245 5.04414 6.40301 4.46307C6.29189 4.32631 6.13607 4.23317 5.96301 4.20007L5.96501 4.20107ZM10.579 2.99907C10.4464 2.99907 10.3192 3.05175 10.2255 3.14552C10.1317 3.23928 10.079 3.36646 10.079 3.49907C10.079 3.63168 10.1317 3.75885 10.2255 3.85262C10.3192 3.94639 10.4464 3.99907 10.579 3.99907C11.844 3.99907 12.894 4.41207 13.725 5.20407C14.152 5.63707 14.485 6.15007 14.703 6.71207C14.922 7.27507 15.022 7.87607 14.996 8.47807C14.9932 8.54373 15.0034 8.60929 15.026 8.67101C15.0486 8.73273 15.0831 8.78939 15.1276 8.83777C15.2174 8.93548 15.3424 8.9935 15.475 8.99907C15.6076 9.00464 15.737 8.9573 15.8347 8.86747C15.9324 8.77764 15.9904 8.65268 15.996 8.52007C16.027 7.77955 15.9041 7.04066 15.635 6.35007C15.3647 5.6562 14.955 5.02519 14.431 4.49607L14.421 4.48607C13.39 3.50107 12.085 2.99907 10.579 2.99907ZM10.545 4.64307C10.4124 4.64307 10.2852 4.69575 10.1915 4.78952C10.0977 4.88328 10.045 5.01046 10.045 5.14307C10.045 5.27568 10.0977 5.40285 10.1915 5.49662C10.2852 5.59039 10.4124 5.64307 10.545 5.64307H10.562C11.474 5.70807 12.138 6.01207 12.603 6.51107C13.08 7.02507 13.327 7.66407 13.308 8.45407C13.305 8.58668 13.3547 8.71507 13.4463 8.81099C13.5379 8.90692 13.6639 8.96252 13.7965 8.96557C13.9291 8.96862 14.0575 8.91887 14.1534 8.82725C14.2494 8.73564 14.305 8.60968 14.308 8.47707C14.332 7.44007 13.998 6.54507 13.336 5.83107V5.82907C12.659 5.10307 11.73 4.71907 10.612 4.64407L10.595 4.64207L10.545 4.64307ZM10.526 6.31807C10.4591 6.31216 10.3917 6.3198 10.3278 6.34053C10.2639 6.36126 10.2048 6.39465 10.1541 6.43871C10.1034 6.48277 10.0621 6.53659 10.0327 6.59697C10.0032 6.65734 9.98623 6.72303 9.98273 6.79012C9.97924 6.8572 9.9893 6.9243 10.0123 6.98741C10.0353 7.05052 10.0708 7.10835 10.1167 7.15743C10.1625 7.20652 10.2178 7.24587 10.2792 7.27313C10.3406 7.30038 10.4068 7.31499 10.474 7.31607C10.892 7.33807 11.159 7.46407 11.327 7.63307C11.496 7.80307 11.622 8.07607 11.645 8.50307C11.6463 8.57017 11.661 8.63633 11.6884 8.69761C11.7157 8.75889 11.7551 8.81404 11.8043 8.85976C11.8534 8.90549 11.9112 8.94085 11.9743 8.96375C12.0374 8.98666 12.1044 8.99663 12.1714 8.99307C12.2385 8.98951 12.3041 8.97249 12.3644 8.94304C12.4247 8.91358 12.4784 8.87229 12.5224 8.82162C12.5664 8.77095 12.5998 8.71194 12.6205 8.64811C12.6412 8.58427 12.6489 8.51692 12.643 8.45007C12.611 7.85007 12.423 7.32007 12.038 6.93007C11.651 6.54007 11.124 6.35007 10.526 6.31807Z" fill="#2A8927"/>
</svg>
